/* XPM */
static char *dummy[]={
"32 32 131 2",
"Qt c None",
"#G c #000000",
"#u c #101010",
".q c #2b2b2b",
".b c #333333",
".u c #373737",
".e c #393939",
".t c #3d3d3d",
".k c #404040",
".W c #414141",
".r c #424242",
".c c #484848",
".8 c #4b4b4b",
".v c #4d4d4d",
".a c #4f4f4f",
".R c #644af6",
".5 c #644cf6",
".Q c #644df6",
"#h c #6957f6",
".l c #696969",
"#6 c #6a5ceb",
".w c #6b6b6b",
".P c #6c5cf6",
"#Y c #6e61eb",
"#s c #7162f6",
".h c #717171",
".T c #747474",
"#W c #7669f6",
".O c #766af6",
"#Z c #766eee",
"#g c #776bf6",
".4 c #786df7",
"#X c #796ed4",
"#0 c #7978f2",
"#5 c #7b7df3",
"#1 c #7c80f3",
".N c #7d77fb",
"#r c #7d78fb",
".m c #7d7d7d",
".3 c #7f7dfd",
"#f c #7f7efe",
".i c #808080",
"#V c #8080fe",
".M c #8081fe",
"#E c #8082fe",
"#4 c #8085f3",
"#2 c #8086f3",
"#3 c #8188f3",
"#N c #8285ff",
"#P c #8286ff",
".U c #838383",
"#O c #847cdc",
".G c #848484",
".L c #8489ff",
".6 c #858585",
".I c #858bff",
"#q c #868dff",
".K c #888eff",
"#e c #888fff",
".J c #8990ff",
"#H c #8a88e1",
".H c #8b8ce2",
"#Q c #8b92ff",
"#U c #8c94ff",
"#v c #8e91e2",
".2 c #8e97ff",
"#D c #8f99ff",
"#I c #9099ff",
"#w c #909aff",
"aa c #919191",
"#R c #929cff",
"#M c #929dff",
".X c #9398e2",
"#d c #939fff",
"#j c #9499e2",
"#p c #94a0ff",
".1 c #95a0ff",
".Y c #95a1ff",
"a# c #969696",
".9 c #969de2",
"#T c #96a3ff",
"#S c #97a4ff",
".0 c #99a7ff",
"#k c #9aa8ff",
".Z c #9ba9ff",
"#c c #9cacff",
"#x c #9dacff",
"#. c #9faeff",
"#C c #9fafff",
"#o c #a0b1ff",
"#J c #a1b2ff",
"#L c #a2b3ff",
".S c #a49fc2",
"#i c #a4a0c2",
"#7 c #a4a1bf",
"#b c #a4b6ff",
"#t c #a5a1c2",
"a. c #a5b9a5",
"#F c #a6a3c2",
".f c #a6a6a6",
"#y c #a7baff",
"#K c #a7bbff",
"#l c #a9bdff",
".E c #aaa6bf",
".D c #aaa7bf",
"#9 c #aabaaa",
"#a c #aabfff",
".C c #aba9bf",
"## c #abc0ff",
".B c #acaabf",
".A c #adacbf",
".y c #adadc0",
"#B c #adc4ff",
".o c #aeaeae",
".z c #aeaec0",
"#z c #b0c7ff",
".x c #b1b1be",
"#n c #b2cbff",
"#m c #b3cdff",
"#A c #b4ceff",
".g c #b5b5b5",
".F c #b7b7bb",
".d c #b8b8b8",
".p c #bbbbbb",
"#8 c #c0c0c0",
".s c #c4c4c4",
".j c #cecece",
".V c #d2d2d2",
".n c #e9e9e9",
".7 c #f1f1f1",
".# c #ffffff",
"QtQtQtQtQtQtQtQtQtQtQtQtQtQtQtQtQtQtQtQtQtQtQtQtQtQtQtQtQtQtQtQt",
"QtQtQtQtQtQtQtQtQtQtQtQtQtQtQtQtQtQtQtQtQtQtQtQtQtQtQtQtQtQtQtQt",
"QtQtQtQtQtQtQtQtQtQtQtQtQtQtQtQtQtQtQtQtQtQtQtQtQtQtQtQtQtQtQtQt",
"QtQtQtQtQtQtQtQtQtQtQtQtQtQtQtQtQtQtQtQtQtQtQtQtQtQtQtQtQtQtQtQt",
"QtQt.#.#.#.#.#.#.#.#.aQtQtQtQtQtQtQtQtQtQtQtQtQtQtQtQtQtQtQtQtQt",
"QtQt.b.b.b.b.b.c.d.d.eQtQtQtQtQtQtQtQtQtQtQtQtQtQtQtQtQtQtQtQtQt",
"QtQt.f.f.f.f.f.g.#.#.aQtQtQtQtQtQtQtQtQtQtQtQtQtQtQtQtQtQtQtQtQt",
"QtQt.h.h.h.h.h.i.j.j.kQtQtQtQtQtQtQtQtQtQtQtQtQtQtQtQtQtQtQtQtQt",
"QtQt.l.l.l.l.l.m.n.n.cQtQtQtQtQtQtQtQtQtQtQtQtQtQtQtQtQtQtQtQtQt",
"QtQt.o.o.o.o.o.p.#.#.aQtQtQtQtQtQtQtQtQtQtQtQtQtQtQtQtQtQtQtQtQt",
"QtQt.q.q.q.q.q.r.d.d.eQtQtQtQtQtQtQtQtQtQtQtQtQtQtQtQtQtQtQtQtQt",
"QtQt.#.#.#.#.#.#.#.#.aQtQtQtQtQtQtQtQtQtQtQtQtQtQtQtQtQtQtQtQtQt",
"QtQt.s.s.s.s.s.s.s.s.tQtQtQtQtQtQtQtQtQtQtQtQtQtQtQtQtQtQtQtQtQt",
"QtQt.#.#.#.#.#.#.#.#.aQtQtQtQtQtQtQtQtQtQtQtQtQtQtQtQtQtQtQtQtQt",
"QtQt.u.u.u.u.u.v.s.s.tQtQtQtQtQtQt.w.x.y.z.z.y.A.B.C.D.E.E.FQtQt",
"QtQt.o.o.o.o.o.p.#.#.aQtQtQtQtQtQt.G.H.I.J.K.L.M.N.O.P.Q.R.SQtQt",
"QtQt.T.T.T.T.T.U.V.V.WQtQtQtQtQtQt.G.X.Y.Z.0.1.2.I.3.4.P.5.SQtQt",
"QtQt.h.h.h.h.h.6.7.7.8QtQtQtQtQtQt.G.9#.###a#b#c#d#e#f#g#h#iQtQt",
"QtQt.#.#.#.#.#.#.#.#.aQtQtQtQtQtQt.G#j#k#l#m#n###o#p#q#r#s#tQtQt",
"QtQtQtQtQt#u#uQtQtQtQtQtQtQtQtQtQt.G#v#w#x#y#z#A#B#C#D#E.O#FQtQt",
"QtQtQtQtQtQt#GQtQtQtQtQtQtQtQtQtQt.G#H.L#I.0#J#K###L#M#N.4#FQtQt",
"QtQtQtQtQtQtQtQtQtQtQtQtQtQtQtQtQt.G#O.N#P#Q#R#S.0#T#U#V#W#FQtQt",
"QtQtQtQtQtQtQtQtQtQtQtQtQtQtQtQtQt.G#X#Y#Z#0#1#2#3#4#5#Z#6#7QtQt",
"QtQtQtQtQtQtQtQtQtQtQtQtQtQtQtQtQt.G#8#8#8#8#8#8#8#8#8#9a.#8QtQt",
"QtQtQtQtQtQtQtQtQtQtQtQtQtQtQtQtQtQta#a#a#a#a#a#a#a#a#a#a#aaQtQt",
"QtQtQtQtQtQtQtQtQtQtQtQtQtQtQtQtQtQtQtQtQtQtQtQtQtQtQtQtQtQtQtQt",
"QtQtQtQtQtQtQtQtQtQtQtQtQtQtQtQtQtQtQtQtQtQtQt#GQtQtQtQtQtQtQtQt",
"QtQtQtQtQtQtQtQtQtQtQtQtQtQtQtQtQtQtQtQtQtQtQtQtQtQtQtQtQtQtQtQt",
"QtQtQtQtQtQtQtQtQtQtQtQtQtQtQtQtQtQtQtQtQtQtQtQtQtQtQtQtQtQtQtQt",
"QtQtQtQtQtQtQtQtQtQtQtQtQtQtQtQtQtQtQtQtQtQtQtQtQtQtQtQtQtQtQtQt",
"QtQtQtQtQtQtQtQtQtQtQtQtQtQtQtQtQtQtQtQtQtQtQtQtQtQtQtQtQtQtQtQt",
"QtQtQtQtQtQtQtQtQtQtQtQtQtQtQtQtQtQtQtQtQtQtQtQtQtQtQtQtQtQtQtQt"};
